<svg width="59" height="59" viewBox="0 0 59 59" fill="none" xmlns="http://www.w3.org/2000/svg">
<path d="M55.575 0.0189976H38.9077C39.017 0.218549 39.1168 0.427599 39.207 0.631901C39.5562 1.46902 39.7103 2.37464 39.6576 3.28014C39.6049 4.18563 39.3469 5.06726 38.9029 5.85824H52.653V23.6325L51.6172 24.6683L51.1801 25.1197L49.1276 27.1817L47.0608 29.2437L35.7291 40.5564L29.2437 47.056L13.6455 31.4578L11.593 33.5056L9.53094 35.5676L25.1292 51.1658L23.6421 52.653L22.7868 53.5082C22.2414 54.0561 21.9341 54.7971 21.9316 55.5702C21.9302 55.9536 22.0062 56.3334 22.1549 56.6867C22.3751 57.2199 22.7487 57.6757 23.2283 57.9963C23.708 58.3169 24.272 58.4878 24.8489 58.4874H55.5845C55.9677 58.4881 56.3474 58.413 56.7016 58.2667C57.0558 58.1203 57.3776 57.9054 57.6487 57.6344C57.9197 57.3634 58.1345 57.0415 58.2809 56.6873C58.4273 56.3331 58.5023 55.9535 58.5017 55.5702V2.91724C58.4967 2.14519 58.1858 1.40661 57.6372 0.86335C57.0886 0.320093 56.347 0.0164664 55.575 0.0189976V0.0189976ZM34.8739 52.653H31.9139L33.3915 51.1658L51.1896 33.3678L52.672 31.8806V52.653H34.8739Z" fill="#6381C0"/>
<path d="M18.8243 55.5702C18.8256 54.5496 19.0855 53.5459 19.5798 52.653H5.8345V34.8549L6.25735 34.432L7.32163 33.3678L9.38365 31.3058L11.4457 29.2437L29.2437 11.4457L44.8515 27.0534L46.9135 24.9914L48.9755 22.9199L33.6766 7.62095L33.382 7.32637L34.8549 5.83924L35.7101 4.98402C35.9819 4.71367 36.1978 4.39241 36.3453 4.0386C36.4929 3.68478 36.5693 3.30535 36.5701 2.92199C36.57 2.53826 36.4924 2.15849 36.342 1.80546C36.1226 1.27136 35.7493 0.814565 35.2696 0.493094C34.7899 0.171622 34.2255 -7.47579e-06 33.6481 2.44229e-10H2.91725C2.53375 -5.0838e-07 2.15402 0.0756079 1.79977 0.22251C1.44552 0.369413 1.12372 0.584724 0.852766 0.856119C0.581813 1.12751 0.367027 1.44967 0.220702 1.80415C0.074376 2.15864 -0.000620708 2.5385 3.88203e-06 2.92199V55.5702C-0.000621873 55.9535 0.0744086 56.3331 0.220792 56.6873C0.367176 57.0415 0.582033 57.3634 0.853049 57.6344C1.12407 57.9054 1.44591 58.1203 1.80013 58.2667C2.15435 58.413 2.53398 58.4881 2.91725 58.4874H19.5893C19.4728 58.2893 19.3712 58.0829 19.2852 57.8698C18.9814 57.1412 18.8248 56.3596 18.8243 55.5702V55.5702ZM23.6325 5.83449H26.6068L25.1197 7.32162L7.31688 25.1197L5.82975 26.5973V5.83449H23.6325Z" fill="#6381C0"/>
</svg>
