<svg width="26" height="26" viewBox="0 0 26 26" fill="none" xmlns="http://www.w3.org/2000/svg">
<path d="M20.8686 1.31986L15.4339 9.38889C15.3565 9.50509 15.3238 9.6454 15.3418 9.78385C15.3599 9.92231 15.4274 10.0495 15.532 10.142C15.6366 10.2345 15.7712 10.286 15.9108 10.287C16.0504 10.2879 16.1857 10.2383 16.2915 10.1472L21.6414 5.50694C21.6727 5.4789 21.7116 5.46058 21.7532 5.45423C21.7948 5.44789 21.8373 5.45379 21.8756 5.47121C21.9139 5.48863 21.9463 5.51683 21.9688 5.55235C21.9913 5.58787 22.003 5.62919 22.0025 5.67125V20.1987C22.0025 20.2432 21.9888 20.2866 21.9633 20.323C21.9377 20.3595 21.9016 20.3871 21.8598 20.4023C21.818 20.4175 21.7725 20.4195 21.7296 20.4079C21.6866 20.3964 21.6483 20.3719 21.6197 20.3378L5.44917 0.980417C5.18907 0.673283 4.8652 0.426482 4.50007 0.257171C4.13495 0.0878605 3.73733 0.000103087 3.33486 9.56922e-08H2.76972C2.03515 9.56922e-08 1.33066 0.291809 0.811233 0.811233C0.291809 1.33066 0 2.03515 0 2.76972V23.2303C0 23.9649 0.291809 24.6693 0.811233 25.1888C1.33066 25.7082 2.03515 26 2.76972 26C3.24335 26.0001 3.7091 25.8789 4.12254 25.6478C4.53598 25.4168 4.88331 25.0836 5.13139 24.6801L10.5661 16.6111C10.6435 16.4949 10.6762 16.3546 10.6582 16.2161C10.6401 16.0777 10.5726 15.9505 10.468 15.858C10.3634 15.7655 10.2288 15.714 10.0892 15.713C9.94957 15.7121 9.81433 15.7617 9.70847 15.8528L4.35861 20.4931C4.32726 20.5211 4.28842 20.5394 4.24683 20.5458C4.20524 20.5521 4.16271 20.5462 4.12442 20.5288C4.08613 20.5114 4.05373 20.4832 4.0312 20.4477C4.00866 20.4121 3.99695 20.3708 3.9975 20.3287V5.79764C3.99752 5.75316 4.01122 5.70977 4.03675 5.67335C4.06228 5.63693 4.0984 5.60925 4.1402 5.59407C4.182 5.57889 4.22747 5.57694 4.27042 5.58848C4.31337 5.60003 4.35172 5.62451 4.38028 5.65861L20.549 25.0196C20.8091 25.3267 21.133 25.5735 21.4981 25.7428C21.8632 25.9121 22.2609 25.9999 22.6633 26H23.2285C23.5923 26.0002 23.9527 25.9288 24.289 25.7897C24.6252 25.6506 24.9307 25.4466 25.1881 25.1894C25.4455 24.9322 25.6497 24.6268 25.789 24.2906C25.9283 23.9545 26 23.5942 26 23.2303V2.76972C26 2.03515 25.7082 1.33066 25.1888 0.811233C24.6693 0.291809 23.9649 9.56922e-08 23.2303 9.56922e-08C22.7567 -0.000124348 22.2909 0.121129 21.8775 0.352188C21.464 0.583246 21.1167 0.916401 20.8686 1.31986Z" fill="black"/>
</svg>
